/* XPM */
static char * badmove_xpm[] = {
"30 30 143 2",
"  	c None",
". 	c #FFBA59",
"+ 	c #FFC365",
"@ 	c #EBAA41",
"# 	c #FFB241",
"$ 	c #FF8C3A",
"% 	c #FF232B",
"& 	c #FF0E24",
"* 	c #FF2B2D",
"= 	c #FFA65A",
"- 	c #FFB760",
"; 	c #FF543D",
"> 	c #FB2428",
", 	c #FF492E",
"' 	c #FFA33E",
") 	c #FF1A26",
"! 	c #FF0C24",
"~ 	c #FF4337",
"{ 	c #FF2C2D",
"] 	c #FFA853",
"^ 	c #EF863A",
"/ 	c #FF2F30",
"( 	c #FF282E",
"_ 	c #FF212A",
": 	c #FF794A",
"< 	c #EBA43F",
"[ 	c #FF7B46",
"} 	c #FD1425",
"| 	c #FF6744",
"1 	c #FF4F3B",
"2 	c #FA2F2A",
"3 	c #FF9D3D",
"4 	c #FF8539",
"5 	c #FF1226",
"6 	c #FF3630",
"7 	c #FFB156",
"8 	c #FFB25F",
"9 	c #FF2D2F",
"0 	c #FFA753",
"a 	c #FF1525",
"b 	c #FF3731",
"c 	c #FFAF55",
"d 	c #FFB15E",
"e 	c #FA2E2A",
"f 	c #FF2B29",
"g 	c #FFAE55",
"h 	c #FF943B",
"i 	c #FF1725",
"j 	c #FF4836",
"k 	c #FFAD55",
"l 	c #EBA33F",
"m 	c #FF5F32",
"n 	c #FF1928",
"o 	c #FF4635",
"p 	c #FFBD63",
"q 	c #FF352B",
"r 	c #FF5230",
"s 	c #FFAF40",
"t 	c #FFA251",
"u 	c #FF2E30",
"v 	c #FF5038",
"w 	c #EBA640",
"x 	c #F64E30",
"y 	c #FE0C24",
"z 	c #FF4D2F",
"A 	c #F8412D",
"B 	c #F9372B",
"C 	c #FFAD40",
"D 	c #EE8F3C",
"E 	c #FD1826",
"F 	c #FD1A26",
"G 	c #FF993C",
"H 	c #FF8E3A",
"I 	c #FF1125",
"J 	c #F07C38",
"K 	c #FF7336",
"L 	c #FF0D24",
"M 	c #FF5A3B",
"N 	c #FFB958",
"O 	c #FF1B26",
"P 	c #FF2929",
"Q 	c #F55A32",
"R 	c #FF4E2F",
"S 	c #FF923B",
"T 	c #EF8339",
"U 	c #FF0F24",
"V 	c #FD1B26",
"W 	c #FF1926",
"X 	c #FF362B",
"Y 	c #FFB657",
"Z 	c #FFAC5D",
"` 	c #FC1F27",
" .	c #ED943D",
"..	c #FF7836",
"+.	c #FF6C41",
"@.	c #FF4036",
"#.	c #FF0F25",
"$.	c #FF9A56",
"%.	c #FF3C2C",
"&.	c #FF7443",
"*.	c #FF6D41",
"=.	c #FF4A36",
"-.	c #FFC164",
";.	c #FF8839",
">.	c #FF1024",
",.	c #FF1426",
"'.	c #FF8B3A",
").	c #FF2F2A",
"!.	c #FFB140",
"~.	c #FF6F47",
"{.	c #FF1F29",
"].	c #FFA452",
"^.	c #FF472E",
"/.	c #FF973C",
"(.	c #FFC264",
"_.	c #FF6D46",
":.	c #FF2D2E",
"<.	c #EF843A",
"[.	c #FF6533",
"}.	c #FFB758",
"|.	c #F7462E",
"1.	c #FF6042",
"2.	c #FFAC3F",
"3.	c #FF1627",
"4.	c #FFAE5D",
"5.	c #F9392C",
"6.	c #FE0D24",
"7.	c #FF8338",
"8.	c #FFA03D",
"9.	c #FF1F27",
"0.	c #FF8A50",
"a.	c #F17837",
"b.	c #FF1124",
"c.	c #FFB040",
"d.	c #FF7235",
"e.	c #FFA259",
"f.	c #FF643F",
"g.	c #FF864F",
"h.	c #EBA740",
"i.	c #FF1D29",
"j.	c #FF774A",
"k.	c #FFB457",
"l.	c #FFB557",
". + @ # # # . + @ # # . + + @ # # # . @ # $ % & * = + @ # # ",
". - ; > , ' . + @ # # . + + @ # # # . @ $ ) ! ! ! ~ + @ # # ",
". ; ! ! ! { ] + @ # # . + + @ # # # . ^ ) ! ! ! ! / @ # . # ",
". ( ! ! ! ! _ : < # # . + + @ # # # [ } ! ! ! ! ! | @ # # . ",
". 1 ! ! ! ! ! ! 2 3 # . + + @ # # 4 5 ! ! ! ! ! 6 7 @ # . . ",
". 8 9 ! ! ! ! ! ! * 0 . + + @ # 4 a ! ! ! ! ! b c + @ # # # ",
". + d e ! ! ! ! ! ! f g + + @ h i ! ! ! ! ! j k . . @ # # . ",
". + + l m n ! ! ! ! ! o p + l q ! ! ! ! ! r s . . + @ # # . ",
". + + @ # t u ! ! ! ! ! v w x ! ! ! ! y z s # . . + @ # # . ",
". + + @ # . d 9 ! ! ! ! ! A & ! ! ! ! B C # # . . + @ # # # ",
". + + @ # . + D E ! ! ! ! ! ! ! ! ! F G # # # . . + @ # # . ",
". + + @ # . + @ H i ! ! ! ! ! ! ! I J # # # # . . + @ # # . ",
". + + @ # . + @ # K L ! ! ! ! ! ! M N # # # . . . + @ # # # ",
". + + @ # . + @ # 3 O ! ! ! ! ! ! 6 < # # . # . . + @ # # # ",
". + + @ # . + @ ' P ! ! ! ! ! ! ! ! Q # # . # . . + @ # # . ",
". + + @ # . + @ R ! ! ! ! ! ! ! ! ! } S . . # . . + @ # # . ",
". + + @ # . + T U ! ! ! ! V W ! ! ! ! X Y . . . . + @ # # . ",
". + + @ # . Z ` ! ! ! ! (  ...L ! ! ! L +.N # . . + @ # . . ",
". + + @ # Y @.! ! ! ! #.$.@ s %.! ! ! ! #.&.# . . + @ # # . ",
". + + @ # *.! ! ! ! ! =.-.@ # ;.>.! ! ! ! ,.'.. . + @ # # . ",
". + + . 3 n ! ! ! ! ).k + @ # !.~.& ! ! ! ! {.].. + @ # # . ",
". + . N ^.! ! ! ! i /.. @ @ # # (._.y ! ! ! ! :.k + @ # # # ",
". + + <.#.! ! ! ! [.# . @ # # # + }.|.! ! ! ! ! 1.+ @ # # . ",
". + + o ! ! ! ! ).2.# . @ # # # + . l q ! ! ! ! 3.4.@ # # . ",
". + + 5.! ! ! 6.7.# # . @ # + . + . @ 8.9.! ! ! ! 0.@ # # . ",
". + + a.b.! L x c.# # . @ # # + . + @ # d.L ! ! 5 e.@ # # # ",
". + + @ $ f.g.h.# # # . @ # # . + + @ # c.m n i.j.(.@ # # # ",
". + + @ # . + @ # # . . @ # # # + + @ # # # k.l.+ + @ # # # ",
". + + @ # . + . # . . . @ # # + + @ # # # # . . + @ # # # # ",
". + @ # # . + @ . # . . @ # # # + @ # . . . . . + @ # # # # "};
