/* XPM */
static char * black_xpm[] = {
"30 30 159 2",
"  	c None",
". 	c #FBBB58",
"+ 	c #FFBA56",
"@ 	c #FAB247",
"# 	c #FAB954",
"$ 	c #FBB247",
"% 	c #FEB54C",
"& 	c #FBB956",
"* 	c #FEB54A",
"= 	c #FBB751",
"- 	c #FDB854",
"; 	c #D2A55F",
"> 	c #86673B",
", 	c #463721",
"' 	c #403B33",
") 	c #121110",
"! 	c #121210",
"~ 	c #403A31",
"{ 	c #856941",
"] 	c #D2A158",
"^ 	c #FAB856",
"/ 	c #FEBA58",
"( 	c #F9B245",
"_ 	c #FDBA57",
": 	c #FCB141",
"< 	c #FDBB57",
"[ 	c #FDB64F",
"} 	c #FAB44A",
"| 	c #FABA59",
"1 	c #FFB447",
"2 	c #FABB59",
"3 	c #FFBB58",
"4 	c #FAB44C",
"5 	c #FBB34A",
"6 	c #FEB447",
"7 	c #FAB650",
"8 	c #F5B14E",
"9 	c #957341",
"0 	c #2B251D",
"a 	c #010101",
"b 	c #000000",
"c 	c #2B261D",
"d 	c #977645",
"e 	c #F0AE49",
"f 	c #FAB44E",
"g 	c #FFB241",
"h 	c #FEBC59",
"i 	c #FBB650",
"j 	c #FAB54E",
"k 	c #FFB54A",
"l 	c #FDB955",
"m 	c #FBB54E",
"n 	c #F9B44B",
"o 	c #FAB550",
"p 	c #FFB346",
"q 	c #C19655",
"r 	c #2B251C",
"s 	c #FFB242",
"t 	c #FEBE5D",
"u 	c #FAB751",
"v 	c #F9B44D",
"w 	c #F9B54F",
"x 	c #FDB751",
"y 	c #FFB448",
"z 	c #FAB54C",
"A 	c #FBB651",
"B 	c #7F6239",
"C 	c #050504",
"D 	c #7F6136",
"E 	c #FEBF61",
"F 	c #FAB143",
"G 	c #FFB446",
"H 	c #FAB64F",
"I 	c #715A38",
"J 	c #715C3D",
"K 	c #FAB754",
"L 	c #FAB041",
"M 	c #FDB74E",
"N 	c #FEBD5D",
"O 	c #FAB752",
"P 	c #7D6036",
"Q 	c #7E633C",
"R 	c #F9B349",
"S 	c #C5944F",
"T 	c #C1934C",
"U 	c #FAB349",
"V 	c #FAB957",
"W 	c #FAB853",
"X 	c #F2B255",
"Y 	c #F1B04D",
"Z 	c #FBB74E",
"` 	c #957443",
" .	c #95733F",
"..	c #FAB348",
"+.	c #FABC5C",
"@.	c #D2A764",
"#.	c #D2A35C",
"$.	c #83683F",
"%.	c #83683D",
"&.	c #3F3A32",
"*.	c #3F3A33",
"=.	c #463822",
"-.	c #83683E",
";.	c #D1A35C",
">.	c #D2A35B",
",.	c #FABD5E",
"'.	c #2B261E",
").	c #957647",
"!.	c #F3B253",
"~.	c #2B251B",
"{.	c #F1B55B",
"].	c #FFB850",
"^.	c #FFB851",
"/.	c #C1934E",
"(.	c #C19450",
"_.	c #FFB64C",
":.	c #F9B957",
"<.	c #7D633C",
"[.	c #7D6137",
"}.	c #FBBA56",
"|.	c #FFB953",
"1.	c #FABA58",
"2.	c #705835",
"3.	c #715B3A",
"4.	c #FEB751",
"5.	c #FAB34A",
"6.	c #FBB44D",
"7.	c #7E6137",
"8.	c #7F6134",
"9.	c #FEBD5C",
"0.	c #FAB54D",
"a.	c #FFB549",
"b.	c #FEBB56",
"c.	c #F9B44C",
"d.	c #FBB54F",
"e.	c #FEB346",
"f.	c #F9B651",
"g.	c #FEB74F",
"h.	c #FBB54D",
"i.	c #FFB54B",
"j.	c #F5B24F",
"k.	c #957546",
"l.	c #FAB753",
"m.	c #FFB344",
"n.	c #FEBE5E",
"o.	c #FAB144",
"p.	c #FDB850",
"q.	c #FFB854",
"r.	c #FFB852",
"s.	c #FFBA58",
"t.	c #D2A560",
"u.	c #86673C",
"v.	c #463720",
"w.	c #403A33",
"x.	c #86683E",
"y.	c #D2A056",
"z.	c #FEC063",
"A.	c #F9B247",
"B.	c #FAB248",
". + @ # $ % & * = - ; > , ' ) ! ~ , { ] ^ / ( _ : < [ } | 1 ",
"2 3 4 # 5 6 7 8 9 0 a b b b b b b b b a c d e f g h i j | k ",
"2 l m n o p q r b b b b b b b b b b b b b b r q s t u v w x ",
"2 7 y z A B C b b b b b b b b b b b b b b b b C D E 7 F 7 m ",
"2 7 G H I b b b b b b b b b b b b b b b b b b b b J K L 7 M ",
"N O G P b b b b b b b b b b b b b b b b b b b b b b Q L R u ",
"2 O S C b b b b b b b b b b b b b b b b b b b b b b C T U V ",
"W X 0 b b b b b b b b b b b b b b b b b b b b b b b b r Y Z ",
"u ` b b b b b b b b b b b b b b b b b b b b b b b b b b  ...",
"+.0 b b b b b b b b b b b b b b b b b b b b b b b b b b 0 K ",
"@.a b b b b b b b b b b b b b b b b b b b b b b b b b b a #.",
"$.b b b b b b b b b b b b b b b b b b b b b b b b b b b b %.",
", b b b b b b b b b b b b b b b b b b b b b b b b b b b b , ",
"&.b b b b b b b b b b b b b b b b b b b b b b b b b b b b &.",
") b b b b b b b b b b b b b b b b b b b b b b b b b b b b ) ",
") b b b b b b b b b b b b b b b b b b b b b b b b b b b b ) ",
"&.b b b b b b b b b b b b b b b b b b b b b b b b b b b b *.",
"=.b b b b b b b b b b b b b b b b b b b b b b b b b b b b =.",
"-.b b b b b b b b b b b b b b b b b b b b b b b b b b b b -.",
";.a b b b b b b b b b b b b b b b b b b b b b b b b b b a >.",
",.0 b b b b b b b b b b b b b b b b b b b b b b b b b b '.o ",
"2  .b b b b b b b b b b b b b b b b b b b b b b b b b b ).4 ",
"2 !.r b b b b b b b b b b b b b b b b b b b b b b b b ~.{.].",
"2 ^./.C b b b b b b b b b b b b b b b b b b b b b b C (.| _.",
":.].@ <.b b b b b b b b b b b b b b b b b b b b b b [.} | k ",
"}.|.@ 1.2.b b b b b b b b b b b b b b b b b b b b 3.4.} | 1 ",
"2 3 5.# 6.7.C b b b b b b b b b b b b b b b b C 8.9.A 0.| a.",
"2 b.j c.d.e.q r b b b b b b b b b b b b b b r q s 9.u w f.g.",
"2 7 a.z h.i.u j.` c a b b b b b b b b a '.k.Y l.m.n.7 o.7 d.",
"2 7 G z p.q.u r.O s.t.u.v.w.) ! ~ , x.y.z.A.B.K m.n.7 L 7 p."};
