/* XPM */
static char * empty_xpm[] = {
"30 30 5 1",
" 	c None",
".	c #FFBA59",
"+	c #FFC365",
"@	c #EBAA41",
"#	c #FFB241",
".+@###.+@##.++@###.@##...++@##",
".++@##.+@##.++@###.@##...++@##",
".++....+@##.++@###.@##...+@#.#",
".++@...+@##.++@###.@##...+@##.",
".++@#..+@##.++@###.@###...@#..",
".++@...+@...++@###.@###..+@###",
".++@#..+@##.++@##..@##....@##.",
".++@#.++@#..++@##..@###..+@##.",
".++@#.++@....@@##..@###..+@##.",
".++@#.++@#..+@##..+@###..+@###",
".++@#.+@@#..+@##..@####..+@##.",
".++@#.+@##..+@#...@####..+@##.",
".++@#.+@##..+@##...###...+@###",
".++@#.+@###.+@###.@##.#..+@###",
".++@#.+@###.+@##..@##.#..+@##.",
".++@#.+@###.+@#.#+@#..#..+@##.",
".++@#.+@###.+@###++#.....+@##.",
".++@#.+@###.+@###++...#..+@#..",
".++@#.+@###.+@###+@#..#..+@##.",
".++@#.+@###.+@###.@##.#..+@##.",
".++.#.+@###.+@##+.@......+@##.",
".+..#.+@###.@@##++@#..#..+@###",
".++@..+@###.@###+.@##...++@##.",
".++.#.+@###.@###+.@#.#..++@##.",
".++@..+@###.@#+.+.@###..++@##.",
".++@#.+@###.@##+.+@###..++@###",
".++@#.+@###.@##.++@###..++@###",
".++@#.+@##..@###++@###..++@###",
".++@#.+.#...@##++@####..+@####",
".+@##.+@.#..@###+@#.....+@####"};
