/* XPM */
static char * test_xpm[] = {
"30 30 231 2",
"  	c None",
". 	c #808000",
"+ 	c #857F02",
"@ 	c #9F750F",
"# 	c #9B7A0B",
"$ 	c #3E3E0B",
"% 	c #3C3C00",
"& 	c #333300",
"* 	c #D16C23",
"= 	c #652F02",
"- 	c #561708",
"; 	c #6E6E05",
"> 	c #646404",
", 	c #7C0606",
"' 	c #990000",
") 	c #736106",
"! 	c #6A4F0D",
"~ 	c #AB0000",
"{ 	c #6C4F0E",
"] 	c #9B7B0B",
"^ 	c #4B1E05",
"/ 	c #F30000",
"( 	c #896315",
"_ 	c #6F0F04",
": 	c #FF0000",
"< 	c #4E1B10",
"[ 	c #4D4D00",
"} 	c #9F0000",
"| 	c #E00000",
"1 	c #CB0000",
"2 	c #750000",
"3 	c #937C08",
"4 	c #4F4308",
"5 	c #BB0404",
"6 	c #4A0C0C",
"7 	c #730505",
"8 	c #470E0E",
"9 	c #503E03",
"0 	c #39391A",
"a 	c #767008",
"b 	c #5F5F0C",
"c 	c #323200",
"d 	c #352D00",
"e 	c #3C2D00",
"f 	c #530101",
"g 	c #8D0202",
"h 	c #040101",
"i 	c #4E1313",
"j 	c #7E0202",
"k 	c #430505",
"l 	c #3B2D00",
"m 	c #342E01",
"n 	c #2D2D00",
"o 	c #2F2D00",
"p 	c #392D00",
"q 	c #2E2E01",
"r 	c #535300",
"s 	c #717105",
"t 	c #656500",
"u 	c #5C0C00",
"v 	c #E70000",
"w 	c #6C0707",
"x 	c #880E0E",
"y 	c #7A0B0B",
"z 	c #BF0000",
"A 	c #C30303",
"B 	c #2F0606",
"C 	c #980000",
"D 	c #F20000",
"E 	c #950B0B",
"F 	c #000000",
"G 	c #3E0000",
"H 	c #CC0000",
"I 	c #47470B",
"J 	c #856813",
"K 	c #4B2F27",
"L 	c #766006",
"M 	c #2D1506",
"N 	c #C30000",
"O 	c #F80000",
"P 	c #5F0000",
"Q 	c #BA0000",
"R 	c #F00000",
"S 	c #FC0000",
"T 	c #CF0606",
"U 	c #720000",
"V 	c #E00101",
"W 	c #E30202",
"X 	c #C90000",
"Y 	c #D20000",
"Z 	c #170000",
"` 	c #300606",
" .	c #AE0000",
"..	c #331B0C",
"+.	c #666300",
"@.	c #BF7319",
"#.	c #876115",
"$.	c #4B3C00",
"%.	c #920300",
"&.	c #DB0000",
"*.	c #5B0E0E",
"=.	c #EC0202",
"-.	c #990303",
";.	c #260808",
">.	c #110202",
",.	c #A80101",
"'.	c #A70808",
").	c #8B0404",
"!.	c #730202",
"~.	c #090906",
"{.	c #1B1B0C",
"].	c #916010",
"^.	c #A77810",
"/.	c #534309",
"(.	c #4F0707",
"_.	c #571818",
":.	c #8A1212",
"<.	c #3D1818",
"[.	c #291B1B",
"}.	c #760A0A",
"|.	c #8D0606",
"1.	c #EA0303",
"2.	c #D70000",
"3.	c #900000",
"4.	c #B60000",
"5.	c #0A0A0A",
"6.	c #424200",
"7.	c #DA6B26",
"8.	c #8B7608",
"9.	c #481B00",
"0.	c #6E0202",
"a.	c #410202",
"b.	c #563226",
"c.	c #651B15",
"d.	c #4D1414",
"e.	c #780000",
"f.	c #670404",
"g.	c #880808",
"h.	c #EC0000",
"i.	c #520707",
"j.	c #4B4B00",
"k.	c #7D7D00",
"l.	c #A32F45",
"m.	c #6B6B00",
"n.	c #6E1B0C",
"o.	c #ED0000",
"p.	c #CB0808",
"q.	c #E10000",
"r.	c #A50000",
"s.	c #320000",
"t.	c #404005",
"u.	c #AD0C06",
"v.	c #FF3C1E",
"w.	c #FF3018",
"x.	c #FF2412",
"y.	c #6F100A",
"z.	c #6A0808",
"A.	c #D00404",
"B.	c #555508",
"C.	c #B47515",
"D.	c #CB711E",
"E.	c #533E10",
"F.	c #DB100A",
"G.	c #FF180C",
"H.	c #9F0C06",
"I.	c #4D0000",
"J.	c #480000",
"K.	c #917C07",
"L.	c #430404",
"M.	c #960000",
"N.	c #750C0C",
"O.	c #3B0000",
"P.	c #C60000",
"Q.	c #F90000",
"R.	c #6B0505",
"S.	c #A0790D",
"T.	c #8D7807",
"U.	c #770C0C",
"V.	c #610A04",
"W.	c #3D3D08",
"X.	c #515100",
"Y.	c #301500",
"Z.	c #9B0C0C",
"`.	c #F60000",
" +	c #A30707",
".+	c #4E4E00",
"++	c #C10A0A",
"@+	c #411800",
"#+	c #7E7005",
"$+	c #A1790D",
"%+	c #75660A",
"&+	c #181800",
"*+	c #8F0000",
"=+	c #BD7319",
"-+	c #4A3300",
";+	c #A00202",
">+	c #291D06",
",+	c #906315",
"'+	c #54401E",
")+	c #B16A18",
"!+	c #3E320C",
"~+	c #780800",
"{+	c #A40000",
"]+	c #1A1A14",
"^+	c #696905",
"/+	c #6E6901",
"(+	c #551102",
"_+	c #6F0600",
":+	c #584D03",
"<+	c #776B0B",
"[+	c #595200",
"}+	c #2E0802",
"|+	c #300202",
"1+	c #786108",
"2+	c #80610A",
"3+	c #141414",
"4+	c #5C5C00",
"5+	c #957C08",
"6+	c #9B4A2F",
"7+	c #806014",
"8+	c #32320A",
"9+	c #544610",
"0+	c #535101",
"a+	c #95740C",
"b+	c #826216",
"c+	c #4E4E01",
"d+	c #AC7712",
"e+	c #836E0E",
"f+	c #896D10",
"g+	c #BB7418",
"h+	c #704F1B",
"                                                            ",
"                              .                             ",
"                            + @                             ",
"                            # $                             ",
"                            % &                             ",
"                          * = - ;                           ",
"                          > , ' )                           ",
"                          ! ~ ~ {                           ",
"                        ] ^ / / ^ ]                         ",
"                        ( _ : : < (                         ",
"                        [ } | 1 2 [                         ",
"                      3 4 5 6 7 8 9 .                       ",
"0 a b c d e e e e e e e f g h i j k d l m n o p e d q r s 0 ",
"    b t u v : : : : / } w x y z A B C D E F G H v u I J K   ",
"        L M N O : : P Q R S T U V W X Y X Z `  ...+.@.      ",
"          #.$.%./ &.*.R =.-.;.>.,.: '.).: !.~.{.].          ",
"            ^./.(.v _.:.<.[.}.|.1.2.3.4.: 5.6..             ",
"              7.8.9.0.a.b.c.d.e.f.g.S h.i.j.k.              ",
"                l.m.n.o.p.T q.r.s.z : H t.3                 ",
"                  [ u.v.v.w.x.v.y.z.: A.B.C.                ",
"                D.E.F.v.v.v.v.G.H.I.: R J..                 ",
"                K.L.h.: : / M.N. .O.P.Q.R.S.                ",
"                T.U.: : 2.V.W.X.Y.F Z.`. +.+                ",
"                & 2.: ++@+#+$+  %+&+*+: &.&                 ",
"              =+-+R ;+>+,+'+      )+!+~+{+]+^+              ",
"              /+(+_+:+<+            . [+}+|+1+              ",
"              2+3+4+5+                6+7+8+9+              ",
"              0+a+                        b+c+d+            ",
"            C.e+                            f+#             ",
"            g+                                h+            "};
