/* XPM */
static char * test2_xpm[] = {
"30 30 572 2",
"  	c None",
". 	c #FBFBFB",
"+ 	c #FAFAFA",
"@ 	c #F8F8F8",
"# 	c #F7F7F7",
"$ 	c #F5F5F5",
"% 	c #F3F3F3",
"& 	c #F1F1F1",
"* 	c #EEEEEE",
"= 	c #EBEBEB",
"- 	c #E9E9E9",
"; 	c #E6E6E6",
"> 	c #E4E4E4",
", 	c #DCE4E6",
"' 	c #CEE8EF",
") 	c #C0EEFA",
"! 	c #8DB4BF",
"~ 	c #CDEAF1",
"{ 	c #DCE5E8",
"] 	c #E8E8E9",
"^ 	c #F0F0F0",
"/ 	c #F9F9F9",
"( 	c #F6F6F6",
"_ 	c #F4F4F4",
": 	c #F2F2F2",
"< 	c #EDEDED",
"[ 	c #EAEAEA",
"} 	c #E7E7E7",
"| 	c #E3E3E3",
"1 	c #E0E0E0",
"2 	c #DCDFDF",
"3 	c #D1E1E6",
"4 	c #C1ECF7",
"5 	c #5E7980",
"6 	c #4A6066",
"7 	c #BAF1FF",
"8 	c #C0EDF8",
"9 	c #D2E3E8",
"0 	c #DEE1E1",
"a 	c #EFEFEF",
"b 	c #ECECEC",
"c 	c #E5E5E6",
"d 	c #E1E1E2",
"e 	c #DDDDDD",
"f 	c #DADADA",
"g 	c #D5D9DA",
"h 	c #C9E0E7",
"i 	c #BAEAF6",
"j 	c #465A60",
"k 	c #1A2224",
"l 	c #A1D1DD",
"m 	c #BDEEFA",
"n 	c #CAE1E8",
"o 	c #D7DCDE",
"p 	c #E4E4E5",
"q 	c #E8E8E8",
"r 	c #DFDFE0",
"s 	c #D6D6D6",
"t 	c #D2D2D2",
"u 	c #CCD4D8",
"v 	c #C3DEE5",
"w 	c #95BCC6",
"x 	c #000000",
"y 	c #94C0CB",
"z 	c #BCEDF9",
"A 	c #C5DFE6",
"B 	c #D0D5D8",
"C 	c #DEDEDE",
"D 	c #E2E2E2",
"E 	c #E5E5E5",
"F 	c #E1E1E1",
"G 	c #DCDCDC",
"H 	c #D8D8D9",
"I 	c #D3D3D3",
"J 	c #CECFD0",
"K 	c #CACCCE",
"L 	c #C3D0D3",
"M 	c #BDE0E9",
"N 	c #73949C",
"O 	c #74959E",
"P 	c #BBEDFA",
"Q 	c #BFDFE8",
"R 	c #C6D1D4",
"S 	c #CECFD1",
"T 	c #D3D3D4",
"U 	c #D7D7D7",
"V 	c #DFDFDF",
"W 	c #DBDBDB",
"X 	c #D0D0D0",
"Y 	c #CBCBCB",
"Z 	c #C6C6C7",
"` 	c #C1C4C6",
" .	c #B8CBD1",
"..	c #B8E4EF",
"+.	c #253032",
"@.	c #253033",
"#.	c #BAEFFC",
"$.	c #BAE4EE",
"%.	c #BED0D6",
"&.	c #C4C7C9",
"*.	c #D5D5D5",
"=.	c #D9D9D9",
"-.	c #D4D5D6",
";.	c #CECECF",
">.	c #C8C8CA",
",.	c #C2C4C8",
"'.	c #BBBCBD",
").	c #AFB6BB",
"!.	c #ABC6D0",
"~.	c #B5E4F1",
"{.	c #242F32",
"].	c #101517",
"^.	c #92BDC9",
"/.	c #B7E7F4",
"(.	c #B2CCD4",
"_.	c #B9BFC0",
":.	c #C2C2C3",
"<.	c #C8C8C8",
"[.	c #CECECE",
"}.	c #D9D9DA",
"|.	c #D8D9DA",
"1.	c #CDCDCF",
"2.	c #C6C6C6",
"3.	c #BFBFBF",
"4.	c #B8B8B8",
"5.	c #A4A5A5",
"6.	c #96A0A2",
"7.	c #9DBFCB",
"8.	c #6D8C95",
"9.	c #020203",
"0.	c #6E8D95",
"a.	c #B4E6F4",
"b.	c #A8CAD3",
"c.	c #A2B2BB",
"d.	c #AFB5BC",
"e.	c #BEBFC1",
"f.	c #CCCCCC",
"g.	c #DDDDDE",
"h.	c #CCCDD0",
"i.	c #C5C6C9",
"j.	c #BEBEBE",
"k.	c #B3B3B3",
"l.	c #9C9FA4",
"m.	c #85888B",
"n.	c #7E96A1",
"o.	c #9DC9D6",
"p.	c #597379",
"q.	c #5B767D",
"r.	c #B7ECFA",
"s.	c #A6D2DE",
"t.	c #8DA1A8",
"u.	c #8F9293",
"v.	c #A4A4A4",
"w.	c #B6B6B6",
"x.	c #C5C6C8",
"y.	c #D8D8D8",
"z.	c #DCDFE0",
"A.	c #D7DBDC",
"B.	c #D1D6D7",
"C.	c #CCD0D1",
"D.	c #C5CACB",
"E.	c #BEC2C3",
"F.	c #B3B7B9",
"G.	c #9FA9B1",
"H.	c #82888D",
"I.	c #6D797C",
"J.	c #7B989F",
"K.	c #A7D8E4",
"L.	c #B6EDFB",
"M.	c #A9DAE6",
"N.	c #85A5AF",
"O.	c #76858C",
"P.	c #878C8E",
"Q.	c #9EA2A3",
"R.	c #B5B9BA",
"S.	c #C4C8C9",
"T.	c #CACFD1",
"U.	c #D0D4D5",
"V.	c #D5DADB",
"W.	c #DADFE0",
"X.	c #CFE2E7",
"Y.	c #C9E1E7",
"Z.	c #C5DEE5",
"`.	c #C2D9DE",
" +	c #BDD4DA",
".+	c #B6CED6",
"++	c #A8BFC5",
"@+	c #97ADB3",
"#+	c #8299A0",
"$+	c #7B9AA5",
"%+	c #96C2CF",
"&+	c #85ADB6",
"*+	c #070707",
"=+	c #080808",
"-+	c #0A0A0A",
";+	c #0C0C0C",
">+	c #0E0E0E",
",+	c #111111",
"'+	c #B8EEFC",
")+	c #B3E8F5",
"!+	c #9BC7D2",
"~+	c #7E9DA5",
"{+	c #80989F",
"]+	c #94ABB2",
"^+	c #A7BDC3",
"/+	c #B8CFD5",
"(+	c #C1D7DE",
"_+	c #C5DDE3",
":+	c #C9E1E8",
"<+	c #CCE4EB",
"[+	c #93B4BC",
"}+	c #8FB5BF",
"|+	c #8FB4BD",
"1+	c #8EB4BE",
"2+	c #8EB1BA",
"3+	c #8CAFBA",
"4+	c #87ACB5",
"5+	c #83A6AF",
"6+	c #7EA3AC",
"7+	c #7EA3AD",
"8+	c #8AB2BD",
"9+	c #3D4D52",
"0+	c #090909",
"a+	c #0B0B0B",
"b+	c #0D0D0D",
"c+	c #0F0F0F",
"d+	c #121212",
"e+	c #151515",
"f+	c #586D72",
"g+	c #94BEC9",
"h+	c #90B8C3",
"i+	c #86ACB5",
"j+	c #86A9B2",
"k+	c #8AADB6",
"l+	c #90B2BB",
"m+	c #94B9C2",
"n+	c #97BAC4",
"o+	c #98BDC6",
"p+	c #97BDC7",
"q+	c #4C6368",
"r+	c #101010",
"s+	c #131313",
"t+	c #171717",
"u+	c #1A1A1A",
"v+	c #1E1E1E",
"w+	c #222222",
"x+	c #252525",
"y+	c #282828",
"z+	c #2B2B2B",
"A+	c #2D2D2D",
"B+	c #2E2E2E",
"C+	c #2A2B2B",
"D+	c #62797E",
"E+	c #BAF0FE",
"F+	c #6A8A92",
"G+	c #232D30",
"H+	c #181818",
"I+	c #1C1C1C",
"J+	c #202020",
"K+	c #292929",
"L+	c #303030",
"M+	c #333333",
"N+	c #353535",
"O+	c #363636",
"P+	c #728D93",
"Q+	c #BEECF8",
"R+	c #BBF0FD",
"S+	c #ACDFED",
"T+	c #789AA3",
"U+	c #0A0E0F",
"V+	c #161616",
"W+	c #232323",
"X+	c #272727",
"Y+	c #2C2C2C",
"Z+	c #313131",
"`+	c #393939",
" @	c #3D3D3D",
".@	c #3F3F3F",
"+@	c #404040",
"@@	c #464949",
"#@	c #637276",
"$@	c #ABDBE7",
"%@	c #B6ECFA",
"&@	c #BBF0FE",
"*@	c #C7E1E7",
"=@	c #BEE7F1",
"-@	c #BBECF8",
";@	c #B9ECF9",
">@	c #779AA3",
",@	c #080B0C",
"'@	c #141414",
")@	c #1B1B1B",
"!@	c #242424",
"~@	c #2F2F2F",
"{@	c #343434",
"]@	c #3E3E3E",
"^@	c #434343",
"/@	c #464646",
"(@	c #494949",
"_@	c #4E5051",
":@	c #BBEEFC",
"<@	c #BFEAF5",
"[@	c #D1D9DC",
"}@	c #C6D6DA",
"|@	c #BED9DF",
"1@	c #B7DEE8",
"2@	c #B7EAF7",
"3@	c #85ACB6",
"4@	c #3A4B4F",
"5@	c #212121",
"6@	c #262626",
"7@	c #373737",
"8@	c #484848",
"9@	c #4D4D4D",
"0@	c #515151",
"a@	c #6D7C80",
"b@	c #9AC1CB",
"c@	c #B8EDFA",
"d@	c #B9E8F4",
"e@	c #C0E3EC",
"f@	c #C9DFE6",
"g@	c #D5D5D6",
"h@	c #CBCECE",
"i@	c #C2CBCF",
"j@	c #B4CDD5",
"k@	c #AED7E2",
"l@	c #B5EAF7",
"m@	c #B5EBF9",
"n@	c #485D63",
"o@	c #191919",
"p@	c #1D1D1D",
"q@	c #323232",
"r@	c #535353",
"s@	c #585858",
"t@	c #7A8F95",
"u@	c #B4E9F7",
"v@	c #B9EFFD",
"w@	c #B2DDE8",
"x@	c #B8D5DE",
"y@	c #C7D5D8",
"z@	c #D2D7DA",
"A@	c #CECED0",
"B@	c #C5C5C6",
"C@	c #B4BBBE",
"D@	c #A4BEC8",
"E@	c #A5CFDA",
"F@	c #B3E7F4",
"G@	c #B0E3F0",
"H@	c #4A6166",
"I@	c #3A3A3A",
"J@	c #414141",
"K@	c #505050",
"L@	c #575757",
"M@	c #5D5D5D",
"N@	c #728083",
"O@	c #B3E6F3",
"P@	c #B7EDFB",
"Q@	c #AFE3F0",
"R@	c #A3CBD6",
"S@	c #A7BEC4",
"T@	c #BBC6CB",
"U@	c #CDCECE",
"V@	c #D1D1D1",
"W@	c #A0A8AA",
"X@	c #90ACB7",
"Y@	c #9FCAD5",
"Z@	c #B3E9F6",
"`@	c #595959",
" #	c #616161",
".#	c #686868",
"+#	c #809297",
"@#	c #B4E9F6",
"##	c #ADE0EE",
"$#	c #8CA2A7",
"%#	c #A7ADAF",
"&#	c #D0D0D1",
"*#	c #D3D4D5",
"=#	c #CACACA",
"-#	c #C0C0C0",
";#	c #A6A8AC",
">#	c #8A9496",
",#	c #8CACB4",
"'#	c #AFE2F0",
")#	c #2A2A2A",
"!#	c #383838",
"~#	c #5A5A5A",
"{#	c #626262",
"]#	c #6B6B6B",
"^#	c #727272",
"/#	c #889BA0",
"(#	c #A7D8E5",
"_#	c #829FA9",
":#	c #81898B",
"<#	c #9D9D9D",
"[#	c #B1B1B1",
"}#	c #B9BBBE",
"|#	c #C0C0C1",
"1#	c #C4C4C6",
"2#	c #B1B2B5",
"3#	c #939799",
"4#	c #89A3AA",
"5#	c #A0CEDA",
"6#	c #37484C",
"7#	c #454545",
"8#	c #4E4E4E",
"9#	c #737373",
"0#	c #7C7C7C",
"a#	c #838788",
"b#	c #ABD7E2",
"c#	c #A4D3E0",
"d#	c #859DA4",
"e#	c #8C9192",
"f#	c #A3A3A3",
"g#	c #BABBBC",
"h#	c #D1D1D2",
"i#	c #BABDC0",
"j#	c #A4ACAE",
"k#	c #98B5BE",
"l#	c #89B1BC",
"m#	c #4A4A4A",
"n#	c #575859",
"o#	c #5E5E5E",
"p#	c #848484",
"q#	c #8B8B8B",
"r#	c #AFDAE5",
"s#	c #ABDCEA",
"t#	c #97B4BB",
"u#	c #9BA2A4",
"v#	c #ADAEB1",
"w#	c #BABABA",
"x#	c #BDBDBE",
"y#	c #D4D4D4",
"z#	c #CCCCCE",
"A#	c #BFC1C2",
"B#	c #B2BFC3",
"C#	c #ACD1DC",
"D#	c #90B9C4",
"E#	c #3B3B3B",
"F#	c #444444",
"G#	c #6A797D",
"H#	c #636363",
"I#	c #6E6E6E",
"J#	c #787878",
"K#	c #828282",
"L#	c #939393",
"M#	c #A8C4CB",
"N#	c #B4E7F5",
"O#	c #A9CED7",
"P#	c #A9B6BB",
"Q#	c #AEB2B5",
"R#	c #B4B4B4",
"S#	c #B9B9B9",
"T#	c #BDBDBD",
"U#	c #E6E6E7",
"V#	c #D0D1D3",
"W#	c #C6C9CA",
"X#	c #BACDD2",
"Y#	c #B6E3EF",
"Z#	c #314044",
"`#	c #6C7E83",
" $	c #B4E7F4",
".$	c #B3E6F4",
"+$	c #7A8082",
"@$	c #7D7D7D",
"#$	c #878787",
"$$	c #909090",
"%$	c #989898",
"&$	c #A3AEB1",
"*$	c #B4E1ED",
"=$	c #AFC5CB",
"-$	c #AFB1B2",
";$	c #B7B7B7",
">$	c #CACFD2",
",$	c #C0D7DC",
"'$	c #B0DCE8",
")$	c #21292C",
"!$	c #6A8085",
"~$	c #94BAC4",
"{$	c #B1E6F4",
"]$	c #AAD7E3",
"^$	c #9AB3BA",
"/$	c #8C8D8D",
"($	c #949494",
"_$	c #9C9C9C",
":$	c #A4A7A8",
"<$	c #B3D9E3",
"[$	c #B7E7F3",
"}$	c #B2CED5",
"|$	c #B1B9BC",
"1$	c #B2B2B2",
"2$	c #B5B5B5",
"3$	c #CED3D6",
"4$	c #C2DDE3",
"5$	c #708E95",
"6$	c #667D82",
"7$	c #A0CDD8",
"8$	c #B7EDFA",
"9$	c #AEE0ED",
"0$	c #A0CDD9",
"a$	c #93BCC6",
"b$	c #AADAE7",
"c$	c #95A0A3",
"d$	c #969696",
"e$	c #9E9E9E",
"f$	c #B3D4DC",
"g$	c #B9EEFB",
"h$	c #B5DCE6",
"i$	c #B1C0C4",
"j$	c #B2B4B5",
"k$	c #DADCDD",
"l$	c #CFDCE0",
"m$	c #C1E5EF",
"n$	c #6F8F97",
"o$	c #B8EDFB",
"p$	c #B9EEFC",
"q$	c #B1E1EE",
"r$	c #9EC2CE",
"s$	c #87A0AA",
"t$	c #77878E",
"u$	c #7E8F94",
"v$	c #97BAC5",
"w$	c #AFDDEA",
"x$	c #B5E8F5",
"y$	c #ABCBD3",
"z$	c #AFC4CA",
"A$	c #B8E6F2",
"B$	c #B2C7CC",
"C$	c #B1B4B5",
"D$	c #DCDFE1",
"E$	c #CEE1E7",
"F$	c #627F86",
"G$	c #BAEEFB",
"H$	c #B1CFD9",
"I$	c #A7B5B9",
"J$	c #9BA0A1",
"K$	c #949596",
"L$	c #9A9C9D",
"M$	c #A2B1B7",
"N$	c #AFCBD2",
"O$	c #B7E3EE",
"P$	c #B8EBF8",
"Q$	c #ABC8D0",
"R$	c #A5ADAF",
"S$	c #A7A7A7",
"T$	c #B8E9F5",
"U$	c #B2CAD0",
"V$	c #AFB4B5",
"W$	c #AEAEAE",
"X$	c #AFAFAF",
"Y$	c #DFE3E5",
"Z$	c #CEE5EC",
"`$	c #BEEEFA",
" %	c #2B383C",
".%	c #AADDEA",
"+%	c #BAF1FE",
"@%	c #BEE3ED",
"#%	c #C0D6DC",
"$%	c #C0CACF",
"%%	c #BABABB",
"&%	c #B6B7B9",
"*%	c #B7B9BD",
"=%	c #BABBBE",
"-%	c #BEC8CA",
";%	c #BFD5DA",
">%	c #B5DAE3",
",%	c #B8E9F6",
"'%	c #B7E9F5",
")%	c #A7B4B7",
"!%	c #B2CAD1",
"~%	c #ADB2B3",
"{%	c #ACACAC",
"]%	c #ABABAB",
". + @ # $ % & * = - ; > , ' ) ! ) ~ { ; ] = * ^ % $ # @ / + ",
"/ @ ( _ : ^ < [ } | 1 2 3 4 5 6 7 8 9 0 | ; - < a : _ ( @ / ",
"# $ % & a b ] c d e f g h i j k l m n o e d p q = * & % $ # ",
"_ : ^ < [ } | r f s t u v w x x y z A B s f C D ; [ < ^ : _ ",
"& * b - E F G H I J K L M N x x O P Q R S T U G F E q b * & ",
"< = } > V W s X Y Z `  ...+.x x @.#.$.%.&.Y X *.f V | } [ < ",
"[ } | C =.-.;.>.,.'.).!.~.{.x x ].^./.(._.:.<.[.I }.C D ; [ ",
"; D e |.T 1.2.3.4.5.6.7.8.9.x x x 0.a.b.c.d.e.2.f.t H g.F E ",
"D e H t h.i.j.k.l.m.n.o.p.x x x x q.r.s.t.u.v.w.x.Y t y.e F ",
"z.A.B.C.D.E.F.G.H.I.J.K.x x x x x x L.M.N.O.P.Q.R.S.T.U.V.W.",
"X.Y.Z.`. +.+++@+#+$+%+&+*+=+-+;+>+,+'+)+!+~+{+]+^+/+(+_+:+<+",
"[+}+|+1+2+3+4+5+6+7+8+9+0+a+b+c+d+e+f+g+h+i+j+k+l+m+n+o+o+p+",
"q+9.x x x x x x x x =+-+;+>+r+s+t+u+v+w+x+y+z+A+B+B+A+z+C+D+",
"E+F+G+x x x x x x x a+b+c+d+e+H+I+J+x+K+A+L+M+N+O+O+N+M+P+7 ",
"Q+R+S+T+U+x x x x x >+,+s+V+u+v+W+X+Y+Z+N+`+ @.@+@@@#@$@%@&@",
"*@=@-@;@>@,@x x x x d+'@H+)@J+!@K+~@{@`+]@^@/@(@_@l+E+E+:@<@",
"[@}@|@1@2@3@4@x x x e+H+I+5@6@z+Z+7@ @^@8@9@0@a@b@7 c@d@e@f@",
"g@h@i@j@k@l@m@n@x x o@p@w+X+Y+q@`++@/@9@r@s@t@u@v@l@w@x@y@z@",
"s A@B@C@D@E@F@G@H@x p@w+X+A+M+I@J@8@K@L@M@N@O@P@Q@R@S@T@U@*.",
"}.V@<.4.W@X@Y@Z@v@x 5@6@Y+q@`+J@(@0@`@ #.#+#@###w $#%#3.&#y.",
"W *#=#-#;#>#,#'#6 x x+)#Z+!#+@8@0@~#{#]#^#/#7 (#_#:#<#[#}#|#",
"C s [.1#2#3#4#5#6#x y+B+N+ @7#8#s@ #]#9#0#a#b#c#d#e#f#k.g#-#",
"1 =.h#<.i#j#k#l#x x )#Z+!#J@m#n#o#.#^#0#p#q#r#s#t#u#v#k.w#x#",
"| G y#z#A#B#C#D#x x Y+M+E#F#G#[+H#I#J#K#q#L#M#N#O#P#Q#R#S#T#",
"U#V y.V#W#X#Y#Z#x x A+{@ @`# $.$E@+$@$#$$$%$&$v@*$=$-$k.;$w#",
"q D W T >$,$'$)$x x A+!$~$G@r.Q@{$]$^$/$($_$:$<$[$}$|$1$2$;$",
"[ p C U 3$4$5$x x x 6$7$8$9$0$! a$b$r.c$d$e$v.f$g$h$i$j$k.2$",
"b } F k$l$m$n$x x 8.o$p$q$r$s$t$u$v$w$x$y$e$v.z$E+A$B$C$[#1$",
"< - > D$E$Q+k k F$E+G$..H$I$J$K$L$M$N$O$P$Q$R$S$E+T$U$V$W$X$",
"a = ; Y$Z$`$ %.%+%P @%#%$%'.%%&%*%=%-%;%>%,%'%)%E+T$!%~%{%]%"};
