/* XPM */
static char * test3_xpm[] = {
"30 30 362 2",
"  	c None",
". 	c #CCD6FF",
"+ 	c #C5CFFF",
"@ 	c #C0CAFF",
"# 	c #BCC6FF",
"$ 	c #9AA4FF",
"% 	c #8993FF",
"& 	c #9DA7FF",
"* 	c #CBD5FF",
"= 	c #ADB7FF",
"- 	c #9EA8FF",
"; 	c #8A95FF",
"> 	c #8C96FF",
", 	c #818BFF",
"' 	c #A2ADFF",
") 	c #B4BEFF",
"! 	c #8A94FF",
"~ 	c #97A1FF",
"{ 	c #D5DFFF",
"] 	c #C2CCFF",
"^ 	c #AEB8FF",
"/ 	c #8B95FF",
"( 	c #909AFF",
"_ 	c #B0BAFF",
": 	c #A1AAFF",
"< 	c #D2DCFF",
"[ 	c #CAD4FF",
"} 	c #B9C3FF",
"| 	c #8D97FF",
"1 	c #96A0FF",
"2 	c #BDC7FF",
"3 	c #CED9FF",
"4 	c #B1BBFF",
"5 	c #939EFF",
"6 	c #95A0FF",
"7 	c #94A0FF",
"8 	c #8994FF",
"9 	c #AFBBFF",
"0 	c #C2CDFF",
"a 	c #98A2FF",
"b 	c #919CFF",
"c 	c #B8C2FF",
"d 	c #D3DDFF",
"e 	c #A5AFFF",
"f 	c #939DFF",
"g 	c #929CFF",
"h 	c #DCE6FF",
"i 	c #7B85FF",
"j 	c #D8E2FF",
"k 	c #D0DAFF",
"l 	c #B0BBFF",
"m 	c #F1FCFF",
"n 	c #BDC8FF",
"o 	c #A1ADFF",
"p 	c #9FABFF",
"q 	c #9EAAFF",
"r 	c #919DFF",
"s 	c #BCC8FF",
"t 	c #C7D3FF",
"u 	c #939FFF",
"v 	c #A3AEFF",
"w 	c #9BA6FF",
"x 	c #9EA9FF",
"y 	c #E7F2FF",
"z 	c #D4DEFF",
"A 	c #B6C0FF",
"B 	c #8D96FF",
"C 	c #959FFF",
"D 	c #E1EBFF",
"E 	c #99A3FF",
"F 	c #808AFF",
"G 	c #BFC9FF",
"H 	c #DFE9FF",
"I 	c #DAE4FF",
"J 	c #A5B0FF",
"K 	c #ACB7FF",
"L 	c #E2EDFF",
"M 	c #D6E2FF",
"N 	c #C2CFFF",
"O 	c #B4C1FF",
"P 	c #AAB6FF",
"Q 	c #A9B6FF",
"R 	c #9CA9FF",
"S 	c #CBD8FF",
"T 	c #CAD6FF",
"U 	c #A2AFFF",
"V 	c #ABB8FF",
"W 	c #A6B2FF",
"X 	c #C8D3FF",
"Y 	c #D2DDFF",
"Z 	c #E7F1FF",
"` 	c #6C76FF",
" .	c #8892FF",
"..	c #D9E4FF",
"+.	c #EFFAFF",
"@.	c #EAF5FF",
"#.	c #A7B3FF",
"$.	c #D0DDFF",
"%.	c #FFFFFF",
"&.	c #C9D6FF",
"*.	c #CCDAFF",
"=.	c #B6C4FF",
"-.	c #B7C5FF",
";.	c #DDEBFF",
">.	c #B3C1FF",
",.	c #B5C2FF",
"'.	c #B2BFFF",
").	c #F3FFFF",
"!.	c #ABB6FF",
"~.	c #B3BEFF",
"{.	c #EEF8FF",
"].	c #A3ACFF",
"^.	c #6E77FF",
"/.	c #727BFF",
"(.	c #A2ACFF",
"_.	c #99A4FF",
":.	c #FCFFFF",
"<.	c #C8D5FF",
"[.	c #DCEAFF",
"}.	c #ECFAFF",
"|.	c #C5D4FF",
"1.	c #C6D5FF",
"2.	c #B6C5FF",
"3.	c #F2FFFF",
"4.	c #CEDDFF",
"5.	c #CAD8FF",
"6.	c #C2D0FF",
"7.	c #DAE7FF",
"8.	c #EEFBFF",
"9.	c #C3D0FF",
"0.	c #AEBAFF",
"a.	c #B9C4FF",
"b.	c #FDFFFF",
"c.	c #717BFF",
"d.	c #747EFF",
"e.	c #8F9AFF",
"f.	c #AEB9FF",
"g.	c #A4B0FF",
"h.	c #FEFFFF",
"i.	c #D7E7FF",
"j.	c #D8E9FF",
"k.	c #C7D7FF",
"l.	c #D0E0FF",
"m.	c #DCECFF",
"n.	c #D3E2FF",
"o.	c #E4F2FF",
"p.	c #BBC8FF",
"q.	c #C4D1FF",
"r.	c #BDC9FF",
"s.	c #7C87FF",
"t.	c #ABB5FF",
"u.	c #E2ECFF",
"v.	c #C5D0FF",
"w.	c #B5C1FF",
"x.	c #F1FFFF",
"y.	c #EFFFFF",
"z.	c #DAECFF",
"A.	c #DDEFFF",
"B.	c #EEFFFF",
"C.	c #EDFEFF",
"D.	c #DAE8FF",
"E.	c #D6E4FF",
"F.	c #D1DDFF",
"G.	c #8894FF",
"H.	c #BAC4FF",
"I.	c #ACB6FF",
"J.	c #DAE5FF",
"K.	c #F1FDFF",
"L.	c #AEBBFF",
"M.	c #CBD9FF",
"N.	c #C9D7FF",
"O.	c #F0FFFF",
"P.	c #ECFCFF",
"Q.	c #E8F6FF",
"R.	c #97A5FF",
"S.	c #C2CEFF",
"T.	c #C7D2FF",
"U.	c #A1ABFF",
"V.	c #B2BEFF",
"W.	c #CEDBFF",
"X.	c #D4E2FF",
"Y.	c #DEEDFF",
"Z.	c #E2F2FF",
"`.	c #AAB9FF",
" +	c #B9C7FF",
".+	c #ECF9FF",
"++	c #D6E3FF",
"@+	c #BECAFF",
"#+	c #C4CFFF",
"$+	c #F4FFFF",
"%+	c #E6F3FF",
"&+	c #C0CEFF",
"*+	c #F5FFFF",
"=+	c #C3D4FF",
"-+	c #E4F4FF",
";+	c #E7F5FF",
">+	c #A5B1FF",
",+	c #8691FF",
"'+	c #737EFF",
")+	c #DBE6FF",
"!+	c #E4F1FF",
"~+	c #E4F7FF",
"{+	c #C7D5FF",
"]+	c #8794FF",
"^+	c #96A1FF",
"/+	c #D0DCFF",
"(+	c #FAFFFF",
"_+	c #BCCCFF",
":+	c #A4B3FF",
"<+	c #AFBCFF",
"[+	c #CCD8FF",
"}+	c #DCE7FF",
"|+	c #A1AEFF",
"1+	c #D3E1FF",
"2+	c #EAFEFF",
"3+	c #D1E3FF",
"4+	c #E0F1FF",
"5+	c #C0CDFF",
"6+	c #BECCFF",
"7+	c #BBC9FF",
"8+	c #CADAFF",
"9+	c #E8F9FF",
"0+	c #CDDAFF",
"a+	c #B1BDFF",
"b+	c #BBC7FF",
"c+	c #D0DEFF",
"d+	c #ECFBFF",
"e+	c #EEFEFF",
"f+	c #E7F6FF",
"g+	c #E0EEFF",
"h+	c #DAE6FF",
"i+	c #D2DEFF",
"j+	c #C9D8FF",
"k+	c #DCEDFF",
"l+	c #DCE9FF",
"m+	c #EDFAFF",
"n+	c #D6E8FF",
"o+	c #C3D3FF",
"p+	c #B3C2FF",
"q+	c #A6B3FF",
"r+	c #99A6FF",
"s+	c #8F9BFF",
"t+	c #DDEAFF",
"u+	c #EFFDFF",
"v+	c #E5F3FF",
"w+	c #D9E5FF",
"x+	c #E3F1FF",
"y+	c #EFFEFF",
"z+	c #FBFFFF",
"A+	c #F9FFFF",
"B+	c #B9C5FF",
"C+	c #A2AEFF",
"D+	c #B0BEFF",
"E+	c #B1BFFF",
"F+	c #D2E0FF",
"G+	c #A3B0FF",
"H+	c #BFCCFF",
"I+	c #D6E5FF",
"J+	c #DDEEFF",
"K+	c #D0E1FF",
"L+	c #F7FFFF",
"M+	c #CFDCFF",
"N+	c #A9B4FF",
"O+	c #ABB7FF",
"P+	c #AAB7FF",
"Q+	c #E7FAFF",
"R+	c #D1E0FF",
"S+	c #B3C0FF",
"T+	c #CEDAFF",
"U+	c #EEF9FF",
"V+	c #EAF9FF",
"W+	c #F8FFFF",
"X+	c #E6F7FF",
"Y+	c #DAE9FF",
"Z+	c #9DA8FF",
"`+	c #8B96FF",
" @	c #D5E1FF",
".@	c #C4D2FF",
"+@	c #E8FAFF",
"@@	c #D8EAFF",
"#@	c #9FADFF",
"$@	c #CCD9FF",
"%@	c #E6F2FF",
"&@	c #BBC6FF",
"*@	c #9CA7FF",
"=@	c #ADB9FF",
"-@	c #B9C6FF",
";@	c #D8E5FF",
">@	c #DFEEFF",
",@	c #CBDBFF",
"'@	c #E2F3FF",
")@	c #C2D5FF",
"!@	c #E6FAFF",
"~@	c #E5F8FF",
"{@	c #D2E3FF",
"]@	c #BDCDFF",
"^@	c #D9E7FF",
"/@	c #ADBAFF",
"(@	c #96A2FF",
"_@	c #BEC9FF",
":@	c #C4CEFF",
"<@	c #9BA5FF",
"[@	c #B1BCFF",
"}@	c #C9D5FF",
"|@	c #E7F4FF",
"1@	c #B4C2FF",
"2@	c #C9DAFF",
"3@	c #E4F6FF",
"4@	c #D6E7FF",
"5@	c #D9EAFF",
"6@	c #AFBEFF",
"7@	c #A8B6FF",
"8@	c #B8C5FF",
"9@	c #DDE9FF",
"0@	c #BAC5FF",
"a@	c #828CFF",
"b@	c #919BFF",
"c@	c #A8B2FF",
"d@	c #D0DBFF",
"e@	c #A9B5FF",
"f@	c #AEBCFF",
"g@	c #A2B1FF",
"h@	c #D6E6FF",
"i@	c #E5F7FF",
"j@	c #B8C8FF",
"k@	c #BBCAFF",
"l@	c #D5E3FF",
"m@	c #97A3FF",
"n@	c #B5C0FF",
"o@	c #97A2FF",
"p@	c #9DA9FF",
"q@	c #F0FDFF",
"r@	c #8C9AFF",
"s@	c #A3B1FF",
"t@	c #DDECFF",
"u@	c #DBEAFF",
"v@	c #CEDEFF",
"w@	c #CCDDFF",
"x@	c #E6F6FF",
"y@	c #C2D2FF",
"z@	c #B1C0FF",
"A@	c #A6B4FF",
"B@	c #CAD7FF",
"C@	c #8490FF",
"D@	c #8995FF",
"E@	c #A0ABFF",
"F@	c #A4AEFF",
"G@	c #C1CBFF",
"H@	c #A4ADFF",
"I@	c #8791FF",
"J@	c #97A4FF",
"K@	c #8B98FF",
"L@	c #C6D4FF",
"M@	c #DEECFF",
"N@	c #C1D0FF",
"O@	c #B7C6FF",
"P@	c #C2D1FF",
"Q@	c #9DAAFF",
"R@	c #B7C3FF",
"S@	c #AAB5FF",
"T@	c #7681FF",
"U@	c #7E88FF",
". + @ # $ % & * = - - ; > ; , ' ) ; ! > % ~ { ] ^ $ / ! ( _ ",
": < [ + } | 1 2 3 ' 4 5 6 7 8 9 0 ; a 5 b c d 2 e f > g 4 h ",
"i ^ j k [ ^ f l m l n o p q r s t u v w x y z A & B C 4 D E ",
"! F G H I j J K L M N O P Q R S T U V W X m Y 4 ~ ~ 4 Z & ` ",
"- |  ...+.@.M #.$.%.&.*.=.-.Q ;.*.>.,.'.%.).T !.' ~.{.].^./.",
"/ (.~ _.%.%.:.S <.%.[.}.|.1.2.3.4.5.6.7.%.8.9.0.a.b.^ c.d., ",
"e e.f.g.0.%.%.%.6.%.%.h.i.j.k.%.l.m.n.%.%.o.p.q.%.r.s.s.> t.",
"u.v._.s w.5.%.%.%.x.%.%.3.y.z.%.A.B.C.%.%.D.E.%.F.G.8 v H.I.",
"& J.K.L.M.N.O.%.%.O.%.%.%.%.).%.%.%.%.%.%.P.%.Q.R.R S.T.A U.",
"Y V.W.%.X.Y.Z.%.%.%.%.%.%.%.%.%.%.%.%.%.%.%.%.`. +.+++@+J > ",
"#+$+%+&+%.%.*+%.%.%.%.%.%.%.%.%.%.%.%.%.%.%.=+-+%.;+q.>+,+'+",
")+q.!+%.:.%.%.%.%.%.%.%.%.%.%.%.%.%.%.%.%.~+%.%.3.{+R ]+e.^+",
"/+%.%.x.%.%.%.%.%.%.%.%.%.%.%.%.%.%.%.%.%.%.%.(+_+:+<+p.[+}+",
"|+O 1+%.%.%.%.%.%.%.%.%.%.%.%.%.%.%.%.%.%.%.2+3+4+(+%.%.h.m ",
"5+6+7+8+9+%.%.%.%.%.%.%.%.%.%.%.%.%.%.%.%.%.%.%.%.%.%.3.0+a+",
"b+c+d+%.%.%.%.%.%.%.%.%.%.%.%.%.%.%.%.%.%.%.%.%.%.e+f+g+h+i+",
"V  +j+k+$+%.%.%.%.%.%.%.%.%.%.%.%.%.%.%.%.%.%.%.%.%.%.%.%.%.",
"l+m+%.%.%.%.%.%.%.%.%.%.%.%.%.%.%.%.%.%.%.%.%.y.n+o+p+q+r+s+",
"t+u+%.%.%.%.%.%.%.%.%.%.%.%.%.%.%.%.%.%.%.%.%.%.%.:.O.v+7.F.",
"w+x+y+z+%.%.%.%.%.%.%.%.%.%.%.%.%.%.%.%.%.%.%.%.%.%.A+X.B+C+",
"L.D+E+k.3.%.%.%.%.%.%.%.%.%.%.%.%.%.%.%.%.%.%.%.%.x.*.F+++h+",
"G+H+E.I+J+%.%.%.%.%.%.%.%.%.%.%.%.%.%.%.%.%.%.z+K+L+%.%.M+N+",
"O+P+$.%.%.%.%.%.%.%.%.%.%.%.%.%.%.%.%.%.%.%.Q+%.%.R+S+L.T+U+",
"0 %.%.$+V+W+%.%.%.%.%.%.%.%.%.%.%.%.%.%.:.%.%.X+Y+%.7.'.Z+`+",
"y  @S .@Q.%.%.+@%.%.).%.%.%.%.%.%.%.%.%.%.@@3.%.b.#@$@%@&@*@",
"~.=@-@;@(+>@,@'@%.)@%.%.%.%.%.%.%.%.!@~@%.{@]@I+^@%./@(@_@:@",
"<@[@}@|@&+1@|.A+2@=+%.%.%.%.%.%.h.%.3@4@5@O.6@7@&+8@9@0@a@b@",
"c@n d@e@C+f@c+g+g@h@*+A+i@X+:.%.3+%.%.j@k@F+l@R.m@0.v n :@/ ",
"4 n@o@u p@S+q@r@s@t@u@y.v@w@x@%.y@).z+z@f@A@B@5+C@D@E@6 F@G@",
"H@ .I@e.x [+J@K@'.$@L@M@N@O@n.b.P@l@Q.&.r+Q@U R@S@T@U@f | ~ "};
