/* XPM */
static char * white_xpm[] = {
"30 30 156 2",
"  	c None",
". 	c #FBBB58",
"+ 	c #FFBA56",
"@ 	c #FAB247",
"# 	c #FAB954",
"$ 	c #FBB247",
"% 	c #FEB54C",
"& 	c #FBB956",
"* 	c #FEB54A",
"= 	c #FBB751",
"- 	c #FDB854",
"; 	c #FBCE89",
"> 	c #FFE0B4",
", 	c #FDEFD8",
"' 	c #FFF9F2",
") 	c #FEFEFC",
"! 	c #FEFEFD",
"~ 	c #FEF9F0",
"{ 	c #FEE2BA",
"] 	c #FCCA81",
"^ 	c #FAB856",
"/ 	c #FEBA58",
"( 	c #F9B245",
"_ 	c #FDBA57",
": 	c #FCB141",
"< 	c #FDBB57",
"[ 	c #FDB64F",
"} 	c #FAB44A",
"| 	c #FABA59",
"1 	c #FFB447",
"2 	c #FABB59",
"3 	c #FFBB58",
"4 	c #FAB44C",
"5 	c #FBB34A",
"6 	c #FEB447",
"7 	c #FAB650",
"8 	c #FFBA57",
"9 	c #FCDAA8",
"0 	c #FFF8F0",
"a 	c #FFFFFF",
"b 	c #FEDCAB",
"c 	c #F9B753",
"d 	c #FAB44E",
"e 	c #FFB241",
"f 	c #FEBC59",
"g 	c #FBB650",
"h 	c #FAB54E",
"i 	c #FFB54A",
"j 	c #FDB955",
"k 	c #FBB54E",
"l 	c #F9B44B",
"m 	c #FAB550",
"n 	c #FFB346",
"o 	c #FBD08F",
"p 	c #FFF8EF",
"q 	c #FEF8EF",
"r 	c #FFB242",
"s 	c #FEBE5D",
"t 	c #FAB751",
"u 	c #F9B44D",
"v 	c #F9B54F",
"w 	c #FDB751",
"x 	c #FFB448",
"y 	c #FAB54C",
"z 	c #FBB651",
"A 	c #FFE2B9",
"B 	c #FFE1B5",
"C 	c #FEBF61",
"D 	c #FAB143",
"E 	c #FFB446",
"F 	c #FAB64F",
"G 	c #FEE7C5",
"H 	c #FEE9C9",
"I 	c #FAB754",
"J 	c #FAB041",
"K 	c #FDB74E",
"L 	c #FEBD5D",
"M 	c #FAB752",
"N 	c #FCE0B5",
"O 	c #FEE3BC",
"P 	c #F9B349",
"Q 	c #FFCE89",
"R 	c #FEFEFE",
"S 	c #FBCC86",
"T 	c #FAB349",
"U 	c #FAB957",
"V 	c #FAB853",
"W 	c #FBBC5E",
"X 	c #FAB956",
"Y 	c #FBB74E",
"Z 	c #FCDBA9",
"` 	c #FCDAA6",
" .	c #FAB348",
"..	c #FABC5C",
"+.	c #FEF8F0",
"@.	c #FBD18D",
"#.	c #FBCC85",
"$.	c #FCE1B8",
"%.	c #FCE1B6",
"&.	c #FDEFD9",
"*.	c #FEF9F1",
"=.	c #FDEFDA",
"-.	c #FCE1B7",
";.	c #FACC86",
">.	c #FBCC84",
",.	c #FABD5E",
"'.	c #FCDDAE",
").	c #FCBB5C",
"!.	c #FEF8EE",
"~.	c #FABE64",
"{.	c #FFB850",
"].	c #FFB851",
"^.	c #FBCD88",
"/.	c #FBCE8A",
"(.	c #FFB64C",
"_.	c #F9B957",
":.	c #FDE3BB",
"<.	c #FDE1B7",
"[.	c #FBBA56",
"}.	c #FFB953",
"|.	c #FABA58",
"1.	c #FDE5C2",
"2.	c #FEE8C7",
"3.	c #FEB751",
"4.	c #FAB34A",
"5.	c #FBB44D",
"6.	c #FEE1B7",
"7.	c #FEBD5C",
"8.	c #FAB54D",
"9.	c #FFB549",
"0.	c #FEBB56",
"a.	c #F9B44C",
"b.	c #FBB54F",
"c.	c #FEB346",
"d.	c #F9B651",
"e.	c #FEB74F",
"f.	c #FBB54D",
"g.	c #FFB54B",
"h.	c #FFF9F0",
"i.	c #FFF9F1",
"j.	c #FCDCAC",
"k.	c #FAB753",
"l.	c #FFB344",
"m.	c #FEBE5E",
"n.	c #FAB144",
"o.	c #FDB850",
"p.	c #FFB854",
"q.	c #FFB852",
"r.	c #FFBA58",
"s.	c #FBCF89",
"t.	c #FFE0B5",
"u.	c #FFE1B7",
"v.	c #FBCA7F",
"w.	c #FEC063",
"x.	c #F9B247",
"y.	c #FAB248",
". + @ # $ % & * = - ; > , ' ) ! ~ , { ] ^ / ( _ : < [ } | 1 ",
"2 3 4 # 5 6 7 8 9 0 a a a a a a a a a a ~ b c d e f g h | i ",
"2 j k l m n o p a a a a a a a a a a a a a a q o r s t u v w ",
"2 7 x y z A ! a a a a a a a a a a a a a a a a ! B C 7 D 7 k ",
"2 7 E F G a a a a a a a a a a a a a a a a a a a a H I J 7 K ",
"L M E N a a a a a a a a a a a a a a a a a a a a a a O J P t ",
"2 M Q ! a a a a a a a a a a a a a a a a a a R a a a ! S T U ",
"V W 0 a a a a a a a a a a a a a a a a a a a a a a a a q X Y ",
"t Z a a a a a a a a a a a a a a a a a a a a a a a a a a `  .",
"..+.a a a a a a a a a a a a a a a a a a a a a a a a a a +.I ",
"@.a a a a a a a a a a a a a a a a a a a a a a a a a a a a #.",
"$.a a a a a a a a a a a a a a a a a a a a a a a a a a a a %.",
"&.a a a a a a a a a a a a a a a a a a a a a a a a a a a a &.",
"*.a a a a a a a a a a a a a a a a a a a a a a a a a a a a *.",
") a a a a a a a a a a a a a a a a a a a a a a a a a a a a ) ",
") a a a a a a a a a a a a a a a a a a a a a a a a a a a a ) ",
"*.a a a a a a a a a a a a a a a a a a a a a a a a a a a a *.",
"&.a a a a a a a a a a a a a a a a a a a a a a a a a a a a =.",
"-.a a a a a a a a a a a a a a a a a a a a a a a a a a a a -.",
";.a a a a a a a a a a a a a a a a a a a a a a a a a a a a >.",
",.+.a a a a a a a a a a a a a a a a a a a a a a a a a a *.m ",
"2 ` a a a a a a a a a a a a a a a a a a a a a a a a a a '.4 ",
"2 ).q a a a a a a a a a a a a a a a a a a a a a a a a !.~.{.",
"2 ].^.! a a a a a a a a a a a a a a a a a a a a a a ! /.| (.",
"_.{.@ :.a a a a a a a a a a a a a a a a a a a a a a <.} | i ",
"[.}.@ |.1.a a a a a a a a a a a a a a a a a a a a 2.3.} | 1 ",
"2 3 4.# 5.6.! a a a a a a a a a a a a a a a a ! > 7.z 8.| 9.",
"2 0.h a.b.c.o p a a a a a a a a a a a a a a q o r 7.t v d.e.",
"2 7 9.y f.g.t 3 Z h.a a a a a a a a a a i.j.X k.l.m.7 n.7 b.",
"2 7 E y o.p.t q.M r.s.t., i.) ! ~ &.u.v.w.x.y.I l.m.7 J 7 o."};
